<svg width="190" height="32" viewBox="0 0 190 32"  xmlns="http://www.w3.org/2000/svg">
    <g clip-path="url(#clip0_0_1379)">
        <path d="M12.5749 31.0005C15.2539 23.7434 20.1199 17.4576 26.4073 12.9434C26.8994 10.6005 27.5008 8.6005 28.1022 6.94336C21.268 9.74336 15.4726 14.4291 11.3721 20.5434C11.5908 23.8005 11.9735 27.2862 12.5749 31.0005Z" fill="white"/>
        <path d="M28.7037 4.08661C27.3368 3.85804 26.0794 3.62946 24.8219 3.34375C18.1517 5.22946 12.1922 9.17232 7.70898 14.5437C8.74778 14.7152 9.84126 14.9437 10.8801 15.1152C10.8801 16.5437 10.8801 17.9723 10.9894 19.458C15.0899 13.458 20.9947 8.82946 27.8289 6.14375C28.1023 5.40089 28.3756 4.71518 28.7037 4.08661Z" fill="white"/>
        <path d="M23.8924 2.82857C21.2134 2.31429 18.5891 1.68571 16.0194 1C11.3175 2.54286 6.99824 5.17143 3.3351 8.77143C3.88183 9.11429 4.3739 9.51429 4.92063 9.85714C5.57672 9.17143 6.2328 8.6 6.94356 8.02857C6.61552 8.88571 6.34215 9.74286 6.06878 10.6571C6.67019 11.1143 7.2716 11.5143 7.87301 11.9143C7.10758 12.0857 6.34215 12.2571 5.57672 12.3714C5.46737 12.8286 5.35802 13.2857 5.30335 13.7429C5.79541 13.8571 6.34215 13.9714 6.88889 14.0857C11.3175 8.71429 17.2769 4.77143 23.8924 2.82857ZM3.17108 8.94286C2.0776 10.0286 0.984127 11.2857 0 12.5429C0.710758 12.7143 1.42152 12.8857 2.0776 13.0571C2.62434 12.3714 3.17108 11.7429 3.71781 11.1143C3.55379 10.3714 3.3351 9.62857 3.17108 8.94286ZM4.20988 12.7143C4.31922 13 4.3739 13.2857 4.48324 13.6286C3.77249 13.4571 3.06173 13.2857 2.35097 13.1714C2.95238 13 3.55379 12.8286 4.20988 12.7143Z" fill="white"/>
        <path d="M35.4288 23.3425H32.0391L36.741 8.59961H40.7869L45.4888 23.3425H42.099L41.2242 20.3139H36.3036L35.4288 23.3425ZM37.2331 17.1139L37.069 17.6282H40.4588L40.2948 17.1139C39.9121 15.6853 39.584 14.4853 39.3107 13.4568C39.0373 12.4282 38.8733 11.7996 38.8186 11.5139L38.7093 11.0568C38.6546 11.8568 38.1625 13.9139 37.2331 17.1139Z" fill="white"/>
        <path d="M50.3 23.3425H47.0742L48.277 8.59961H51.8308L53.7991 13.9139C54.1271 14.8282 54.4005 15.6282 54.6739 16.371C54.8926 17.1139 55.0566 17.6282 55.1113 17.971L55.2206 18.4282C55.4393 17.4567 55.9314 15.971 56.6968 13.971L58.665 8.65675H62.2188L63.695 23.3996H60.4693L59.9225 17.6853L59.6492 13.3996C59.2665 14.4853 58.7744 15.9139 58.1183 17.6853L56.1501 23.2282H54.2365L52.2682 17.6853C51.9402 16.771 51.6668 15.971 51.4481 15.2282C51.2294 14.5425 51.0654 14.0282 51.0107 13.7425L50.9014 13.3425C50.9014 14.371 50.8467 15.7996 50.7374 17.6282L50.3 23.3425Z" fill="white"/>
        <path d="M76.4884 22.7134C75.6137 23.2849 74.4109 23.5706 72.8253 23.5706C70.7477 23.5706 69.0528 22.8849 67.6313 21.4563C66.2645 20.0849 65.5537 18.2563 65.5537 16.0277C65.5537 13.7992 66.2098 11.9706 67.5766 10.542C68.9435 9.11345 70.693 8.42773 72.8253 8.42773C74.4109 8.42773 75.6137 8.71345 76.4884 9.28488V12.542C75.4496 11.8563 74.3015 11.5134 72.9893 11.5134C71.8412 11.5134 70.9117 11.9134 70.1463 12.7706C69.3809 13.5706 68.9982 14.7134 68.9982 16.0849C68.9982 17.4563 69.3809 18.542 70.1463 19.2849C70.9117 20.0849 71.8959 20.4849 73.0987 20.4849C74.4109 20.4849 75.559 20.142 76.4884 19.4563V22.7134Z" fill="white"/>
        <path d="M90.54 23.3425H87.3143V17.4568H82.1203V23.3425H78.8945V8.59961H82.1203V14.5996H87.3143V8.59961H90.54V23.3425Z" fill="white"/>
        <path d="M95.7335 23.3425H92.3984L97.1004 8.59961H101.146L105.848 23.3425H102.404L101.529 20.3139H96.6083L95.7335 23.3425ZM97.5378 17.1139L97.3737 17.6282H100.764L100.599 17.1139C100.217 15.6853 99.8887 14.4853 99.6154 13.4568C99.342 12.4282 99.178 11.7996 99.1233 11.5139L99.014 11.0568C98.9593 11.8568 98.4672 13.9139 97.5378 17.1139Z" fill="white"/>
        <path d="M110.605 23.3425H107.379L108.582 8.59961H112.136L114.104 13.9139C114.432 14.8282 114.705 15.6282 114.979 16.371C115.197 17.1139 115.361 17.6282 115.416 17.971L115.525 18.4282C115.744 17.4567 116.236 15.971 117.001 13.971L118.97 8.65675H122.524L124 23.3996H120.774L120.227 17.6853L119.954 13.3996C119.571 14.4853 119.079 15.9139 118.423 17.6853L116.455 23.2282H114.541L112.573 17.6853C112.245 16.771 111.971 15.971 111.753 15.2282C111.534 14.5425 111.37 14.0282 111.315 13.7425L111.206 13.3425C111.206 14.371 111.151 15.7996 111.042 17.6282L110.605 23.3425Z" fill="white"/>
    </g>
    <line x1="132.5" y1="2.18557e-08" x2="132.5" y2="32" stroke="#89898A"/>
    <path d="M147.013 23.8827C145.547 23.8827 144.287 23.5234 143.232 22.8048C142.176 22.0862 141.37 21.1256 140.813 19.923C140.271 18.7058 140 17.3786 140 15.9413C140 14.4895 140.271 13.1622 140.813 11.9597C141.37 10.7571 142.176 9.79652 143.232 9.07791C144.287 8.3593 145.547 8 147.013 8C148.801 8 150.267 8.51329 151.41 9.53987C152.553 10.5665 153.301 11.9157 153.653 13.5875H150.707C150.501 12.7369 150.069 12.0403 149.409 11.4977C148.765 10.9404 147.98 10.6618 147.057 10.6618C145.782 10.6618 144.815 11.1457 144.155 12.1137C143.496 13.0816 143.166 14.3575 143.166 15.9413C143.166 17.5252 143.496 18.8011 144.155 19.769C144.815 20.7369 145.782 21.2209 147.057 21.2209C147.966 21.2209 148.728 20.9643 149.344 20.451C149.959 19.923 150.384 19.2704 150.619 18.4931H153.565C153.213 20.077 152.473 21.3749 151.344 22.3868C150.216 23.3841 148.772 23.8827 147.013 23.8827Z" fill="#1FC4DA"/>
    <path d="M161.264 23.9047C160.033 23.9047 158.97 23.6627 158.076 23.1787C157.197 22.6801 156.53 22.0422 156.076 21.2649C155.621 20.4876 155.394 19.6664 155.394 18.8011V18.6691H158.736V18.8011C158.736 19.1677 158.824 19.5417 159 19.923C159.19 20.2896 159.476 20.5976 159.857 20.8469C160.253 21.0962 160.736 21.2209 161.308 21.2209C162.026 21.2209 162.605 21.0376 163.045 20.6709C163.499 20.3043 163.726 19.813 163.726 19.1971C163.726 18.6691 163.536 18.2511 163.155 17.9432C162.788 17.6205 162.334 17.4079 161.792 17.3052L159.923 16.9093C158.956 16.7186 158.025 16.308 157.131 15.6774C156.237 15.0321 155.79 13.9835 155.79 12.5316C155.79 11.593 156.017 10.7864 156.471 10.1118C156.926 9.42255 157.556 8.90193 158.362 8.54996C159.168 8.18332 160.084 8 161.11 8C162.283 8 163.287 8.22732 164.122 8.68194C164.972 9.13657 165.61 9.72319 166.035 10.4418C166.474 11.1604 166.694 11.923 166.694 12.7296V12.8176H163.353V12.7516C163.353 12.2236 163.162 11.7324 162.781 11.2777C162.415 10.8084 161.821 10.5738 161 10.5738C160.326 10.5738 159.798 10.7571 159.417 11.1237C159.036 11.4757 158.846 11.9303 158.846 12.4876C158.846 13.0156 159.036 13.4335 159.417 13.7415C159.813 14.0495 160.297 14.2621 160.868 14.3795L162.715 14.7754C163.844 15.0247 164.826 15.4867 165.661 16.1613C166.496 16.8359 166.914 17.8258 166.914 19.1311C166.914 20.0697 166.672 20.9056 166.189 21.6389C165.705 22.3575 165.031 22.9148 164.166 23.3107C163.316 23.7067 162.349 23.9047 161.264 23.9047Z" fill="#1FC4DA"/>
    <path d="M174.177 18.1192H172.154V23.7067H169.12V8.30797H174.814C176.046 8.30797 177.079 8.54262 177.914 9.01192C178.75 9.48121 179.365 10.0898 179.761 10.8378C180.157 11.5857 180.355 12.3996 180.355 13.2796C180.355 14.2915 180.091 15.2081 179.563 16.0293C179.035 16.8359 178.237 17.4152 177.167 17.7672L180.64 23.7067H177.453L174.177 18.1192ZM172.154 15.6334H174.353C175.203 15.6334 175.921 15.4574 176.507 15.1054C177.108 14.7388 177.409 14.1302 177.409 13.2796C177.409 12.429 177.115 11.835 176.529 11.4977C175.943 11.1457 175.217 10.9698 174.353 10.9698H172.154V15.6334Z" fill="#1FC4DA"/>
    <path d="M187.105 24C186.299 24 185.615 23.7311 185.053 23.1934C184.516 22.6312 184.247 21.9468 184.247 21.1402C184.247 20.3336 184.516 19.6493 185.053 19.0871C185.615 18.5249 186.299 18.2438 187.105 18.2438C187.936 18.2438 188.62 18.5249 189.157 19.0871C189.719 19.6493 190 20.3336 190 21.1402C190 21.9224 189.719 22.5946 189.157 23.1567C188.62 23.7189 187.936 24 187.105 24Z" fill="#FF6D03"/>
    <defs>
        <clipPath id="clip0_0_1379">
            <rect width="124" height="30" fill="white" transform="translate(0 1)"/>
        </clipPath>
    </defs>
</svg>
